<svg xmlns="http://www.w3.org/2000/svg" viewBox="0 0 846 438">
<g transform="translate(0.000000,438.000000) scale(0.100000,-0.100000)"
fill="#000000" stroke="none">
<path d="M30 4351 c-7 -13 -9 -702 -7 -2178 l2 -2158 4195 -3 c3920 -2 4196
-1 4207 15 10 13 13 471 13 2157 0 1178 -3 2151 -6 2164 -4 12 -11 22 -16 22
-13 0 -69 -61 -153 -165 -21 -28 -42 -52 -45 -55 -3 -3 -24 -27 -45 -55 -22
-27 -42 -52 -45 -55 -6 -5 -158 -195 -215 -269 -16 -21 -44 -56 -62 -77 -18
-22 -57 -70 -88 -109 -31 -38 -71 -87 -88 -109 -18 -21 -45 -56 -62 -77 -107
-138 -192 -238 -202 -239 -6 0 -21 12 -33 28 -12 15 -38 45 -59 67 -20 22 -44
50 -53 63 -8 12 -33 42 -55 65 -21 23 -45 51 -53 63 -8 12 -40 49 -70 84 -30
35 -61 72 -69 84 -8 12 -22 28 -31 36 -15 15 -131 151 -198 234 -19 23 -50 59
-71 81 -20 22 -43 50 -51 61 -9 12 -36 46 -62 75 -25 30 -74 87 -108 127 -73
86 -94 91 -137 35 -15 -21 -41 -51 -57 -68 -15 -16 -49 -55 -74 -85 -26 -30
-67 -78 -92 -106 -110 -124 -167 -189 -187 -217 -12 -16 -44 -52 -70 -81 -26
-28 -66 -73 -88 -101 -21 -27 -46 -57 -55 -65 -8 -8 -38 -42 -65 -75 -28 -33
-52 -62 -56 -65 -10 -9 -194 -222 -229 -266 -37 -45 -54 -53 -67 -30 -4 8 -31
38 -58 68 -28 29 -73 80 -100 113 -28 32 -71 82 -96 110 -26 27 -69 76 -95
107 -80 93 -174 200 -223 253 -25 28 -59 66 -75 85 -15 19 -45 53 -65 75 -20
22 -51 58 -70 80 -154 181 -286 315 -311 315 -8 0 -40 -24 -70 -53 -49 -47
-90 -91 -235 -256 -22 -26 -42 -48 -45 -51 -3 -3 -32 -36 -65 -75 -33 -38 -81
-92 -106 -120 -26 -27 -69 -76 -95 -107 -66 -76 -237 -272 -243 -278 -4 -3
-33 -36 -66 -75 -33 -38 -76 -88 -97 -110 -20 -22 -46 -52 -58 -67 -20 -26
-50 -38 -50 -20 0 4 -12 21 -27 37 -15 17 -45 50 -67 75 -23 25 -53 60 -67 78
-15 18 -44 52 -65 75 -22 23 -50 56 -63 72 -12 17 -37 46 -54 65 -18 19 -55
62 -82 95 -28 33 -66 78 -87 100 -20 22 -53 61 -75 87 -21 25 -77 90 -124 145
-48 54 -119 136 -160 183 -40 47 -80 92 -89 100 -8 8 -28 32 -44 53 -40 55
-66 49 -134 -33 -30 -36 -74 -87 -97 -115 -24 -27 -54 -63 -66 -80 -13 -16
-40 -48 -60 -70 -44 -48 -134 -154 -171 -203 -15 -19 -42 -51 -60 -71 -18 -20
-51 -59 -73 -86 -21 -28 -46 -57 -55 -65 -9 -8 -34 -37 -55 -65 -22 -27 -54
-66 -72 -85 -17 -19 -42 -48 -54 -65 -13 -16 -42 -49 -64 -73 -22 -24 -47 -54
-55 -68 -20 -33 -40 -30 -73 14 -15 20 -50 64 -77 97 -28 33 -63 76 -78 96
-15 19 -44 55 -64 80 -44 53 -272 337 -308 384 -33 43 -142 179 -149 185 -4 3
-24 28 -46 55 -21 28 -42 52 -45 55 -3 3 -23 28 -45 55 -22 28 -50 60 -63 73
-12 13 -30 34 -39 48 -25 38 -50 48 -63 25z m4820 -1791 c58 -6 216 -10 353
-10 146 0 247 -4 247 -9 0 -6 -89 -90 -197 -188 -109 -97 -248 -223 -308 -278
-61 -55 -153 -139 -205 -186 -52 -47 -122 -110 -156 -140 -58 -52 -119 -107
-374 -339 -64 -58 -158 -143 -210 -190 -52 -47 -145 -131 -205 -186 -99 -91
-116 -102 -155 -106 -41 -5 -183 1 -547 20 l-123 7 30 35 c16 19 30 38 30 42
0 6 97 149 450 661 113 163 210 305 215 315 6 9 51 75 100 147 97 139 96 137
170 247 27 40 53 75 56 78 4 3 17 24 29 48 l22 42 337 0 c185 -1 383 -5 441
-10z"/>
</g>
</svg>
