<svg xmlns="http://www.w3.org/2000/svg" viewBox="0 0 1968 373">
<g transform="translate(0.000000,373.000000) scale(0.100000,-0.100000)"
fill="#000000" stroke="none">
<path d="M8378 3698 c-9 -7 -38 -44 -64 -83 -140 -206 -242 -356 -276 -404
-60 -86 -57 -91 61 -91 l99 0 68 62 c38 34 96 87 129 118 33 31 123 115 200
186 77 70 155 143 174 160 22 21 32 37 28 48 -6 14 -31 16 -205 16 -143 0
-203 -3 -214 -12z"/>
<path d="M5713 2978 c-40 -43 -81 -93 -442 -543 -105 -132 -196 -241 -200
-243 -7 -2 -246 271 -386 443 -22 27 -56 67 -76 90 -19 22 -71 83 -114 135
-80 98 -92 110 -111 110 -6 0 -60 -57 -120 -127 -60 -70 -131 -152 -158 -182
-27 -31 -61 -69 -75 -86 -29 -34 -312 -362 -351 -408 l-26 -29 -61 68 c-33 38
-94 107 -134 153 -41 46 -114 130 -164 186 -49 56 -103 117 -119 136 -115 133
-251 281 -269 291 -18 9 -29 2 -96 -69 -42 -43 -166 -182 -276 -308 -326 -373
-395 -449 -404 -452 -3 -1 -53 55 -111 123 -58 69 -118 140 -135 158 -16 19
-60 70 -97 113 -37 43 -79 92 -93 108 -229 267 -282 325 -297 325 -10 0 -37
-24 -60 -53 -24 -30 -94 -114 -157 -188 -125 -148 -147 -174 -281 -334 -143
-169 -175 -205 -181 -205 -3 0 -57 63 -119 140 -62 78 -117 146 -124 153 -6 7
-36 44 -66 82 -30 39 -57 72 -60 75 -3 3 -41 50 -85 105 -129 163 -219 265
-232 265 -10 0 -13 -304 -13 -1485 l0 -1485 2873 2 2872 3 3 1473 c1 811 -2
1480 -6 1488 -6 11 -17 4 -49 -28z m-2174 -1204 c101 -2 185 -5 187 -7 3 -2
-76 -75 -173 -163 -238 -213 -699 -631 -931 -843 l-114 -104 -231 13 c-128 7
-233 14 -235 15 -3 3 186 284 292 435 29 41 107 156 175 255 67 99 159 233
204 299 l81 119 280 -8 c155 -4 364 -9 465 -11z"/>
<path d="M15725 3002 c-5 -4 -52 -70 -104 -147 -52 -77 -134 -199 -183 -271
-48 -72 -88 -139 -88 -148 0 -14 14 -16 100 -16 l100 0 48 42 c26 24 81 75
122 114 41 39 111 104 155 145 44 41 109 102 145 136 36 33 82 76 104 95 22
20 36 40 32 47 -8 13 -414 16 -431 3z"/>
<path d="M7423 2904 c-3 -8 -1 -26 5 -38 9 -19 21 -24 75 -30 108 -11 186 -54
235 -130 l27 -41 0 -1170 0 -1170 -27 -41 c-15 -23 -41 -52 -58 -64 -43 -31
-141 -60 -200 -60 -51 0 -65 -15 -53 -60 5 -20 12 -20 667 -18 l661 3 3 23 c5
35 -15 52 -62 52 -96 0 -206 60 -252 137 l-29 48 0 1165 0 1165 22 35 c48 77
113 114 219 125 88 9 106 19 102 53 l-3 27 -663 3 c-595 2 -663 1 -669 -14z"/>
<path d="M10200 2281 c-14 -5 -59 -9 -100 -10 -41 -1 -92 -6 -114 -12 -21 -6
-59 -14 -85 -19 -112 -20 -310 -111 -417 -191 -111 -84 -229 -213 -293 -320
-29 -48 -91 -177 -91 -189 0 -6 -4 -18 -9 -28 -12 -22 -36 -108 -53 -192 -25
-128 -14 -324 29 -480 14 -53 19 -66 50 -140 80 -189 224 -363 392 -473 103
-68 219 -127 249 -127 10 0 22 -4 27 -9 33 -31 300 -72 471 -72 365 0 680 113
900 323 74 71 141 156 170 218 4 8 17 31 29 50 72 116 135 367 135 534 0 175
-54 402 -127 541 -127 241 -348 433 -583 510 -30 10 -71 23 -90 30 -57 20
-148 36 -265 45 -60 5 -130 12 -155 14 -25 3 -56 1 -70 -3z m290 -193 c184
-87 286 -247 360 -563 24 -103 37 -371 24 -515 -17 -205 -59 -382 -112 -477
-7 -12 -12 -27 -12 -33 0 -23 -94 -152 -143 -196 -176 -158 -423 -189 -627
-78 -104 57 -213 201 -266 352 -56 162 -67 255 -67 557 -1 189 3 299 12 340
42 199 65 270 118 370 21 39 93 135 102 135 3 0 24 17 46 38 55 52 137 96 200
106 17 2 89 3 160 2 125 -3 133 -5 205 -38z"/>
<path d="M15355 2280 c-16 -4 -59 -8 -95 -9 -92 -1 -215 -30 -360 -83 -150
-55 -355 -205 -449 -328 -19 -25 -38 -47 -41 -50 -10 -7 -92 -149 -111 -190
-33 -71 -39 -86 -53 -130 -39 -119 -50 -196 -50 -350 0 -190 23 -306 89 -448
14 -29 25 -55 25 -57 0 -11 67 -115 113 -175 178 -232 441 -379 763 -425 189
-28 452 -14 634 33 289 74 520 243 668 487 75 125 98 181 143 360 6 28 14 115
17 193 4 148 -11 285 -44 377 -8 23 -14 47 -14 54 0 8 -24 64 -54 126 -134
276 -372 473 -676 558 -113 31 -158 39 -270 48 -63 5 -135 11 -160 13 -25 3
-58 1 -75 -4z m265 -176 c88 -34 164 -93 240 -183 45 -54 112 -216 143 -351
57 -240 57 -570 0 -810 -37 -158 -99 -300 -171 -389 -57 -70 -67 -80 -122
-117 -99 -65 -191 -94 -304 -94 -143 0 -261 46 -356 139 -50 48 -140 179 -140
203 0 8 -4 18 -9 23 -28 32 -68 209 -86 378 -20 184 -18 331 5 507 25 189 39
248 82 350 35 82 43 96 87 155 75 102 200 189 296 206 73 14 285 3 335 -17z"/>
<path d="M13145 2214 c-116 -6 -358 -45 -460 -75 -142 -41 -172 -52 -290 -110
-107 -53 -220 -135 -295 -215 -61 -65 -139 -177 -165 -239 -10 -22 -21 -48
-26 -58 -33 -63 -73 -239 -89 -387 -8 -79 -8 -133 0 -215 25 -249 109 -426
277 -587 92 -88 277 -194 398 -228 17 -5 55 -17 85 -28 131 -45 239 -57 530
-57 286 0 315 3 459 51 111 37 222 104 267 162 12 16 24 50 27 82 4 30 10 78
13 105 l6 50 -39 -45 c-120 -140 -200 -192 -358 -234 -122 -33 -347 -24 -447
18 -21 9 -46 16 -56 16 -31 0 -214 116 -278 177 -110 105 -193 246 -246 423
-24 79 -36 365 -20 445 35 165 50 212 108 330 107 221 273 375 479 446 51 17
273 18 335 1 87 -24 203 -83 275 -139 57 -45 165 -168 165 -188 0 -19 35 -45
59 -45 31 0 36 24 17 91 -20 73 -22 289 -2 371 7 31 10 62 5 69 -5 9 -88 13
-336 14 -180 1 -359 1 -398 -1z"/>
<path d="M16930 2171 c0 -44 10 -51 70 -51 54 0 125 -35 157 -77 l28 -36 3
-831 c2 -457 0 -849 -3 -872 -11 -75 -84 -128 -195 -142 -55 -7 -55 -7 -58
-45 l-3 -37 556 0 556 0 -3 38 c-3 36 -4 37 -53 43 -69 9 -141 45 -173 87
l-27 35 -3 264 c-2 180 0 263 7 263 6 0 59 -48 118 -108 113 -112 225 -212
349 -309 157 -123 461 -293 524 -293 10 0 22 -5 25 -10 4 -6 158 -10 431 -10
l424 0 0 40 c0 36 -3 40 -24 40 -43 0 -133 41 -168 77 l-33 34 0 879 0 878 25
27 c33 35 103 65 152 65 32 0 40 4 49 26 5 15 7 35 4 45 -6 18 -28 19 -546 19
-593 0 -564 3 -543 -59 8 -23 16 -27 69 -31 80 -7 131 -36 170 -95 20 -29 20
-51 23 -872 2 -752 1 -843 -13 -843 -21 0 -183 100 -275 171 -288 218 -556
542 -733 885 l-37 70 0 278 c0 324 1 329 84 377 36 20 64 29 98 29 69 0 78 6
78 51 l0 39 -555 0 -555 0 0 -39z"/>
</g>
</svg>
