<svg xmlns="http://www.w3.org/2000/svg" viewBox="0 0 1615 821">
<g transform="translate(0.000000,821.000000) scale(0.100000,-0.100000)"
fill="#ffb101" stroke="none">
<path d="M1638 6038 c-2 -1184 -1 -2160 0 -2170 2 -9 14 -19 25 -22 32 -9
8350 -7 8364 2 15 9 15 25 14 2370 -1 1594 -3 1972 -14 1972 -17 0 -164 -170
-383 -445 -30 -38 -68 -86 -83 -105 -16 -19 -52 -64 -80 -100 -28 -36 -68 -85
-89 -109 -20 -25 -46 -57 -57 -72 -27 -36 -137 -173 -145 -179 -3 -3 -19 -23
-36 -45 -16 -22 -39 -51 -52 -65 -12 -14 -33 -40 -45 -57 -12 -18 -27 -33 -33
-33 -7 0 -23 15 -38 34 -14 19 -32 40 -39 48 -14 15 -144 167 -197 232 -19 24
-60 72 -90 108 -30 35 -89 105 -130 154 -41 49 -77 91 -80 94 -3 3 -27 32 -55
65 -27 33 -52 62 -55 65 -9 8 -148 174 -212 253 -31 39 -68 77 -83 86 -30 18
-14 33 -207 -189 -51 -58 -94 -107 -97 -110 -4 -3 -28 -32 -56 -65 -27 -33
-52 -62 -55 -65 -3 -3 -28 -32 -55 -65 -28 -33 -66 -78 -87 -100 -20 -22 -53
-61 -75 -87 -21 -25 -77 -90 -124 -145 -48 -54 -119 -136 -160 -183 -40 -47
-75 -87 -79 -90 -3 -3 -23 -26 -44 -52 -21 -27 -44 -48 -50 -48 -7 0 -54 48
-106 107 -52 58 -120 134 -150 167 -31 34 -82 93 -115 131 -33 39 -62 72 -65
75 -3 3 -35 39 -70 80 -36 41 -86 97 -112 125 -25 27 -59 66 -75 86 -74 94
-370 416 -399 435 -17 12 -28 13 -42 5 -20 -11 -150 -150 -319 -342 -198 -225
-279 -317 -339 -384 -34 -38 -73 -83 -85 -100 -13 -16 -44 -52 -70 -80 -56
-60 -151 -169 -216 -247 -27 -31 -55 -57 -64 -57 -9 -1 -34 20 -55 47 -21 26
-55 65 -75 87 -20 22 -49 56 -65 75 -15 19 -48 58 -74 86 -102 115 -166 189
-187 217 -12 16 -44 52 -70 81 -26 28 -66 74 -88 101 -21 28 -46 57 -55 65 -8
8 -38 42 -65 75 -28 33 -66 78 -86 100 -20 22 -49 56 -65 75 -15 19 -52 62
-82 95 -30 33 -63 70 -74 83 -11 12 -25 22 -32 22 -18 0 -59 -40 -122 -118
-92 -114 -133 -164 -168 -202 -17 -19 -49 -57 -71 -85 -22 -27 -54 -66 -72
-85 -17 -19 -42 -48 -54 -65 -13 -16 -40 -48 -61 -70 -20 -22 -50 -59 -67 -82
-16 -22 -35 -44 -41 -48 -6 -4 -29 -30 -51 -58 -23 -29 -55 -68 -73 -87 -17
-19 -42 -48 -54 -65 -13 -16 -38 -46 -55 -65 -18 -19 -47 -54 -65 -77 -30 -38
-62 -56 -62 -35 0 4 -26 39 -58 78 -31 39 -73 90 -92 114 -19 24 -59 73 -88
109 -29 36 -74 93 -100 125 -26 33 -63 78 -82 101 -19 23 -62 77 -95 119 -33
43 -70 89 -83 104 -13 15 -35 43 -50 62 -14 19 -42 53 -62 76 -19 23 -57 69
-85 104 -85 107 -179 210 -192 210 -10 0 -13 -443 -15 -2152z m4867 352 c77
-7 233 -11 348 -9 115 2 207 0 207 -5 0 -13 -67 -86 -119 -130 -25 -21 -89
-78 -141 -126 -52 -48 -120 -109 -151 -136 -57 -50 -219 -196 -525 -474 -93
-85 -230 -209 -304 -275 -263 -236 -376 -339 -452 -411 l-78 -74 -97 0 c-102
0 -605 30 -612 36 -3 2 5 14 16 27 10 12 81 114 156 227 76 113 212 313 304
445 91 132 210 305 264 385 54 80 151 219 215 310 63 91 118 172 121 180 18
46 12 45 370 43 186 -1 401 -7 478 -13z"/>
<path d="M887 3408 c-22 -20 -69 -87 -294 -422 -29 -43 -50 -82 -47 -87 8 -13
156 -10 181 4 18 10 152 130 242 217 15 14 76 70 136 125 160 146 173 159 168
173 -4 9 -49 12 -183 12 -172 0 -180 -1 -203 -22z"/>
<path d="M7692 2768 c-5 -7 -63 -92 -128 -188 -65 -96 -137 -203 -161 -238
-46 -68 -52 -87 -27 -96 27 -10 128 -6 156 7 14 7 57 41 95 77 38 36 129 121
203 190 236 220 260 243 260 252 0 14 -386 10 -398 -4z"/>
</g>
<g transform="translate(0.000000,821.000000) scale(0.100000,-0.100000)"
fill="#acab00" stroke="none">
<path d="M10 2676 c0 -33 16 -42 80 -49 103 -10 180 -59 221 -139 18 -36 19
-76 19 -1104 0 -1180 4 -1106 -64 -1167 -47 -41 -93 -59 -176 -68 -41 -4 -76
-8 -78 -8 -2 -1 -2 -16 0 -33 l3 -33 590 -3 c325 -1 600 0 613 3 15 4 22 13
22 30 0 30 -26 45 -79 45 -73 0 -178 60 -211 122 -41 76 -41 101 -38 1158 3
765 6 1024 16 1050 28 82 134 150 234 150 52 0 78 15 78 45 l0 25 -615 0 -615
0 0 -24z"/>
<path d="M2490 2101 c-84 -7 -197 -26 -235 -41 -11 -4 -42 -16 -70 -25 -27
-10 -86 -36 -130 -58 -218 -112 -392 -304 -483 -537 -46 -119 -51 -138 -69
-263 -16 -112 -16 -127 0 -243 10 -68 21 -134 26 -147 5 -12 17 -47 26 -77 26
-77 86 -191 144 -269 202 -273 528 -420 926 -420 478 0 832 191 1028 554 94
175 135 411 107 622 -42 313 -173 542 -412 716 -21 15 -40 27 -43 27 -3 0 -22
10 -43 23 -42 26 -143 68 -217 90 -142 43 -370 62 -555 48z m320 -147 c54 -21
136 -72 171 -105 87 -84 165 -243 199 -409 16 -73 40 -376 34 -420 -3 -19 -9
-82 -14 -140 -33 -384 -183 -630 -436 -716 -70 -24 -233 -21 -308 5 -82 29
-115 51 -190 131 -94 100 -141 205 -186 415 -22 102 -32 343 -20 486 13 166
51 351 86 423 13 27 24 55 24 60 0 14 80 122 117 159 62 62 146 109 228 127
63 14 244 4 295 -16z"/>
<path d="M7270 2100 c-357 -30 -661 -212 -840 -505 -22 -36 -40 -67 -40 -70 0
-2 -11 -28 -24 -57 -112 -244 -115 -537 -9 -803 40 -101 64 -141 136 -235 207
-268 521 -409 916 -410 330 -1 626 101 819 283 117 109 181 205 257 382 60
139 83 408 50 575 -91 454 -379 737 -840 824 -100 18 -300 26 -425 16z m259
-130 c174 -29 325 -178 394 -390 55 -166 72 -286 72 -500 0 -270 -34 -440
-125 -625 -48 -97 -98 -160 -166 -209 -103 -75 -172 -97 -305 -97 -141 0 -222
29 -313 112 -56 51 -146 175 -146 201 0 8 -4 18 -8 23 -5 6 -16 30 -24 55 -74
215 -92 630 -37 880 6 25 14 63 18 85 31 163 163 354 289 418 20 11 46 24 56
29 50 26 193 34 295 18z"/>
<path d="M5285 2045 c-5 -2 -57 -8 -115 -15 -120 -13 -329 -60 -410 -91 -30
-11 -64 -23 -75 -27 -11 -3 -36 -15 -55 -27 -19 -11 -48 -26 -63 -33 -44 -19
-136 -89 -205 -156 -121 -116 -208 -281 -251 -471 -23 -104 -39 -289 -30 -355
21 -167 36 -226 84 -326 103 -214 268 -351 540 -447 190 -68 256 -77 574 -77
153 0 281 4 305 11 164 42 280 98 344 167 35 38 42 52 42 87 0 24 3 57 6 74 9
45 -10 40 -63 -19 -111 -124 -267 -190 -450 -190 -230 0 -410 68 -565 212 -84
79 -134 156 -203 313 -86 197 -65 567 44 785 55 109 83 152 146 224 100 114
226 191 352 216 66 13 218 9 280 -8 156 -43 309 -157 405 -302 14 -20 34 -36
47 -38 22 -4 23 -1 17 40 -24 177 -24 322 -1 419 6 22 3 27 -17 32 -23 7 -664
8 -683 2z"/>
<path d="M8821 2036 c-7 -8 -9 -25 -5 -40 5 -23 12 -26 48 -27 60 0 126 -31
161 -74 l30 -37 3 -756 c2 -417 0 -780 -3 -808 -10 -81 -85 -144 -174 -144
-54 0 -66 -12 -62 -63 1 -16 30 -17 509 -15 l507 3 0 35 c0 35 0 35 -50 40
-74 8 -144 47 -169 95 -19 37 -21 60 -24 271 -4 265 -2 272 66 201 285 -301
609 -533 863 -621 l76 -26 369 2 369 3 0 35 c0 33 -2 35 -40 41 -96 14 -159
67 -170 142 -3 23 -5 388 -3 810 l3 768 41 39 c41 38 94 60 147 60 26 0 28 2
25 38 l-3 37 -475 3 c-261 1 -485 0 -498 -3 -19 -5 -23 -11 -20 -38 3 -31 5
-32 58 -38 76 -8 128 -38 163 -91 16 -25 17 -84 17 -813 0 -522 -3 -785 -10
-785 -18 0 -191 111 -277 177 -141 109 -340 316 -456 474 -30 41 -127 190
-127 196 0 3 -8 17 -19 31 -10 15 -37 62 -60 106 l-41 79 0 231 c0 135 5 248
11 271 20 73 76 112 179 124 55 6 55 6 55 41 l0 35 -501 3 c-422 2 -503 0
-513 -12z"/>
</g>
</svg>
