<svg xmlns="http://www.w3.org/2000/svg" viewBox="0 0 1615 821">
<g transform="translate(0.000000,821.000000) scale(0.100000,-0.100000)"
fill="#000000" stroke="none">
<path d="M1640 8181 c-7 -13 -9 -702 -7 -2178 l2 -2158 4195 -3 c3920 -2 4196
-1 4207 15 10 13 13 471 13 2157 0 1178 -3 2151 -6 2164 -4 12 -11 22 -16 22
-13 0 -69 -61 -153 -165 -21 -28 -42 -52 -45 -55 -3 -3 -24 -27 -45 -55 -22
-27 -42 -52 -45 -55 -6 -5 -158 -195 -215 -269 -16 -21 -44 -56 -62 -77 -18
-22 -57 -70 -88 -109 -31 -38 -71 -87 -88 -109 -18 -21 -45 -56 -62 -77 -107
-138 -192 -238 -202 -239 -6 0 -21 12 -33 28 -12 15 -38 45 -59 67 -20 22 -44
50 -53 63 -8 12 -33 42 -55 65 -21 23 -45 51 -53 63 -8 12 -40 49 -70 84 -30
35 -61 72 -69 84 -8 12 -22 28 -31 36 -15 15 -131 151 -198 234 -19 23 -50 59
-71 81 -20 22 -43 50 -51 61 -9 12 -36 46 -62 75 -25 30 -74 87 -108 127 -73
86 -94 91 -137 35 -15 -21 -41 -51 -57 -68 -15 -16 -49 -55 -74 -85 -26 -30
-67 -78 -92 -106 -110 -124 -167 -189 -187 -217 -12 -16 -44 -52 -70 -81 -26
-28 -66 -73 -88 -101 -21 -27 -46 -57 -55 -65 -8 -8 -38 -42 -65 -75 -28 -33
-52 -62 -56 -65 -10 -9 -194 -222 -229 -266 -37 -45 -54 -53 -67 -30 -4 8 -31
38 -58 68 -28 29 -73 80 -100 113 -28 32 -71 82 -96 110 -26 27 -69 76 -95
107 -80 93 -174 200 -223 253 -25 28 -59 66 -75 85 -15 19 -45 53 -65 75 -20
22 -51 58 -70 80 -154 181 -286 315 -311 315 -8 0 -40 -24 -70 -53 -49 -47
-90 -91 -235 -256 -22 -26 -42 -48 -45 -51 -3 -3 -32 -36 -65 -75 -33 -38 -81
-92 -106 -120 -26 -27 -69 -76 -95 -107 -66 -76 -237 -272 -243 -278 -4 -3
-33 -36 -66 -75 -33 -38 -76 -88 -97 -110 -20 -22 -46 -52 -58 -67 -20 -26
-50 -38 -50 -20 0 4 -12 21 -27 37 -15 17 -45 50 -67 75 -23 25 -53 60 -67 78
-15 18 -44 52 -65 75 -22 23 -50 56 -63 72 -12 17 -37 46 -54 65 -18 19 -55
62 -82 95 -28 33 -66 78 -87 100 -20 22 -53 61 -75 87 -21 25 -77 90 -124 145
-48 54 -119 136 -160 183 -40 47 -80 92 -89 100 -8 8 -28 32 -44 53 -40 55
-66 49 -134 -33 -30 -36 -74 -87 -97 -115 -24 -27 -54 -63 -66 -80 -13 -16
-40 -48 -60 -70 -44 -48 -134 -154 -171 -203 -15 -19 -42 -51 -60 -71 -18 -20
-51 -59 -73 -86 -21 -28 -46 -57 -55 -65 -9 -8 -34 -37 -55 -65 -22 -27 -54
-66 -72 -85 -17 -19 -42 -48 -54 -65 -13 -16 -42 -49 -64 -73 -22 -24 -47 -54
-55 -68 -20 -33 -40 -30 -73 14 -15 20 -50 64 -77 97 -28 33 -63 76 -78 96
-15 19 -44 55 -64 80 -44 53 -272 337 -308 384 -33 43 -142 179 -149 185 -4 3
-24 28 -46 55 -21 28 -42 52 -45 55 -3 3 -23 28 -45 55 -22 28 -50 60 -63 73
-12 13 -30 34 -39 48 -25 38 -50 48 -63 25z m4820 -1791 c58 -6 216 -10 353
-10 146 0 247 -4 247 -9 0 -6 -89 -90 -197 -188 -109 -97 -248 -223 -308 -278
-61 -55 -153 -139 -205 -186 -52 -47 -122 -110 -156 -140 -58 -52 -119 -107
-374 -339 -64 -58 -158 -143 -210 -190 -52 -47 -145 -131 -205 -186 -99 -91
-116 -102 -155 -106 -41 -5 -183 1 -547 20 l-123 7 30 35 c16 19 30 38 30 42
0 6 97 149 450 661 113 163 210 305 215 315 6 9 51 75 100 147 97 139 96 137
170 247 27 40 53 75 56 78 4 3 17 24 29 48 l22 42 337 0 c185 -1 383 -5 441
-10z"/>
<path d="M847 3368 c-24 -35 -88 -128 -142 -208 -54 -80 -113 -166 -131 -191
-54 -74 -50 -79 57 -79 105 0 89 -10 253 145 62 57 123 113 136 125 13 11 73
66 133 123 60 56 113 104 117 107 3 3 9 13 13 23 6 16 -7 17 -192 17 l-199 0
-45 -62z"/>
<path d="M7709 2784 c-10 -3 -75 -91 -145 -197 -71 -106 -131 -194 -134 -197
-20 -20 -80 -120 -80 -133 0 -15 13 -17 95 -17 l95 0 82 78 c46 42 99 93 118
112 33 31 156 146 310 288 30 28 51 54 47 59 -9 8 -360 15 -388 7z"/>
<path d="M14 2696 c-3 -8 -4 -25 -2 -38 3 -20 10 -24 68 -31 108 -13 193 -64
227 -135 17 -35 18 -107 18 -1107 0 -1003 -1 -1072 -18 -1107 -35 -73 -132
-124 -247 -131 -44 -2 -45 -3 -45 -37 l0 -35 605 -3 c560 -2 606 -1 617 15 17
22 16 28 -3 47 -9 9 -32 16 -56 16 -108 0 -223 81 -246 172 -17 66 -17 2079 0
2145 12 50 63 109 117 136 17 9 63 19 102 23 69 7 99 22 99 49 0 8 -9 19 -19
25 -13 6 -224 10 -616 10 -507 0 -596 -2 -601 -14z"/>
<path d="M2490 2105 c-118 -14 -215 -32 -245 -45 -11 -4 -45 -16 -75 -26 -30
-10 -72 -29 -92 -41 -21 -13 -41 -23 -46 -23 -5 0 -47 -26 -93 -59 -357 -249
-528 -713 -412 -1121 21 -77 72 -200 94 -232 11 -14 19 -29 19 -33 0 -12 108
-152 152 -197 93 -95 259 -199 389 -242 150 -49 273 -68 450 -68 431 1 766
158 961 452 81 122 117 206 159 370 25 102 20 391 -10 495 -23 79 -34 113 -48
145 -99 238 -266 412 -495 520 -83 39 -102 45 -253 79 -70 17 -300 43 -337 40
-7 -1 -60 -7 -118 -14z m365 -174 c207 -100 328 -354 352 -745 15 -235 -18
-478 -90 -656 -46 -113 -107 -204 -183 -271 -146 -127 -395 -146 -569 -44 -93
54 -215 228 -247 352 -47 187 -50 212 -51 483 -1 184 3 282 12 320 7 30 19 84
27 120 25 106 62 194 116 270 72 101 179 178 283 204 11 2 79 4 150 2 125 -2
133 -3 200 -35z"/>
<path d="M7270 2105 c-186 -21 -320 -61 -450 -132 -81 -45 -117 -71 -204 -151
-142 -129 -244 -294 -302 -487 -36 -119 -45 -354 -19 -480 63 -302 259 -565
530 -710 67 -36 246 -95 320 -107 256 -38 502 -23 705 45 238 80 406 205 532
397 48 74 69 113 108 205 12 30 37 122 50 190 22 114 5 402 -31 513 -106 330
-318 546 -641 656 -93 32 -153 44 -308 61 -145 16 -151 16 -290 0z m325 -152
c11 -6 38 -19 60 -29 69 -32 177 -149 218 -234 85 -178 118 -346 118 -606 1
-213 -14 -321 -68 -494 -66 -213 -190 -357 -359 -416 -124 -43 -289 -30 -403
34 -85 47 -182 164 -225 272 -10 25 -24 60 -32 78 -8 18 -14 44 -14 58 0 14
-4 33 -10 43 -20 37 -43 332 -36 466 12 258 50 434 121 570 64 124 196 237
309 266 44 11 297 5 321 -8z"/>
<path d="M5245 2044 c-287 -33 -443 -73 -625 -162 -191 -93 -346 -243 -425
-410 -54 -116 -65 -144 -76 -197 -4 -22 -12 -60 -17 -85 -72 -333 4 -651 202
-853 78 -80 102 -98 173 -138 32 -18 68 -38 80 -46 43 -28 255 -99 368 -123
36 -8 163 -15 313 -17 263 -5 319 0 452 44 86 29 193 87 235 129 37 38 43 50
48 101 4 32 9 78 13 103 l7 45 -24 -26 c-13 -14 -37 -42 -52 -62 -55 -72 -172
-144 -283 -173 -134 -35 -317 -24 -467 26 -130 43 -265 146 -357 270 -50 67
-130 227 -130 259 0 10 -7 38 -16 62 -25 66 -25 361 0 444 35 119 49 160 57
170 5 5 9 16 9 25 0 37 123 221 205 305 27 29 126 96 175 120 71 34 124 46
234 52 88 5 130 -2 241 -43 115 -43 261 -163 327 -268 21 -35 34 -46 53 -46
35 0 39 19 20 88 -16 57 -17 151 -3 367 l3 40 -355 1 c-195 1 -368 0 -385 -2z"/>
<path d="M8814 2036 c-3 -8 -4 -25 -2 -38 3 -19 11 -24 58 -31 79 -11 129 -37
163 -87 16 -23 17 -87 17 -825 l0 -800 -30 -37 c-33 -40 -99 -68 -162 -68 -32
0 -39 -4 -44 -25 -14 -58 -40 -55 516 -55 l511 0 -3 38 c-3 36 -4 37 -48 42
-61 7 -135 45 -162 83 -22 31 -23 41 -26 275 -2 169 0 242 8 242 6 0 56 -46
113 -103 182 -183 376 -337 572 -454 11 -7 29 -16 40 -21 118 -55 162 -74 187
-79 15 -3 31 -10 34 -14 3 -5 180 -9 394 -9 l390 0 6 25 c9 38 -2 55 -35 55
-46 0 -113 34 -149 74 l-32 37 2 809 3 808 25 27 c30 32 73 51 135 60 36 6 46
12 51 31 14 56 37 54 -499 54 -384 0 -497 -3 -505 -12 -6 -7 -8 -25 -5 -39 4
-24 11 -27 60 -33 72 -8 126 -37 158 -83 l25 -38 0 -777 c0 -427 -4 -779 -8
-782 -5 -3 -24 5 -43 18 -19 12 -50 31 -69 42 -57 31 -209 146 -292 220 -193
174 -395 435 -522 676 l-46 88 0 258 c0 229 2 261 18 291 24 45 89 80 163 88
l60 6 -3 36 -3 36 -508 3 c-434 2 -508 0 -513 -12z"/>
</g>
</svg>
