<svg xmlns="http://www.w3.org/2000/svg" viewBox="0 0 1968 373">
<g transform="translate(0.000000,373.000000) scale(0.100000,-0.100000)"
fill="#ffb101" stroke="none">
<path d="M8344 3648 c-21 -29 -75 -107 -119 -173 -45 -66 -114 -167 -153 -225
-40 -57 -72 -108 -72 -112 0 -5 45 -8 99 -8 105 0 109 1 181 70 61 57 274 256
292 272 98 85 218 203 218 214 0 12 -36 14 -204 14 l-204 0 -38 -52z"/>
<path d="M25 2998 c-3 -7 -4 -674 -3 -1483 l3 -1470 2866 -3 2866 -2 5 137 c9
201 10 2588 2 2721 -4 61 -10 112 -13 112 -6 0 -116 -127 -188 -216 -17 -21
-93 -115 -168 -209 -76 -93 -178 -221 -227 -283 -50 -61 -96 -112 -102 -112
-6 0 -36 30 -66 67 -30 36 -86 103 -125 148 -38 45 -88 104 -110 131 -22 26
-58 69 -80 94 -22 26 -80 95 -130 154 -149 179 -160 190 -177 180 -14 -8 -183
-200 -313 -355 -22 -26 -107 -125 -190 -220 -82 -94 -163 -189 -180 -210 -16
-21 -34 -38 -40 -38 -5 0 -41 36 -80 81 -38 45 -113 130 -165 188 -52 58 -166
188 -253 287 -174 201 -244 273 -263 273 -7 0 -28 -15 -47 -32 -33 -32 -206
-223 -256 -284 -13 -16 -61 -70 -105 -120 -45 -50 -124 -139 -176 -199 -52
-59 -110 -124 -127 -144 -18 -20 -33 -39 -33 -43 0 -24 -33 2 -95 74 -39 45
-104 121 -145 169 -41 47 -124 144 -185 214 -114 133 -274 316 -305 349 -23
24 -34 17 -101 -64 -84 -102 -92 -111 -125 -149 -24 -29 -155 -184 -266 -316
-125 -150 -202 -235 -211 -235 -7 0 -27 21 -46 46 -19 25 -79 101 -133 167
-54 67 -126 157 -161 200 -34 43 -67 84 -73 90 -5 7 -50 62 -98 122 -106 132
-161 195 -170 195 -4 0 -9 -6 -11 -12z m3533 -1222 c94 0 172 -4 172 -8 0 -4
-96 -94 -213 -200 -210 -190 -719 -651 -909 -821 l-96 -87 -74 0 c-40 0 -148
5 -240 11 l-166 12 119 176 c66 97 163 239 216 316 242 352 286 416 350 513
l68 103 300 -7 c165 -4 378 -7 473 -8z"/>
<path d="M15659 2903 c-36 -54 -118 -176 -183 -272 -64 -95 -116 -181 -114
-190 3 -13 18 -16 94 -16 110 0 70 -29 409 294 50 48 134 126 188 175 53 48
97 92 97 97 0 5 -96 9 -213 9 l-212 0 -66 -97z"/>
</g>
<g transform="translate(0.000000,373.000000) scale(0.100000,-0.100000)"
fill="#acab00" stroke="none">
<path d="M7430 2890 c0 -36 17 -45 91 -53 96 -9 189 -70 230 -149 18 -36 19
-74 19 -1193 0 -1151 0 -1156 -21 -1197 -41 -80 -123 -127 -239 -137 l-75 -6
0 -35 0 -35 655 0 655 0 3 29 c4 36 -10 46 -68 46 -83 0 -198 61 -235 125 -46
79 -45 56 -45 1220 0 1189 -1 1168 53 1238 35 46 112 85 183 92 89 9 102 13
114 36 27 50 38 49 -666 49 l-654 0 0 -30z"/>
<path d="M10110 2271 c-278 -21 -549 -141 -743 -328 -121 -117 -209 -256 -277
-438 -39 -105 -75 -321 -65 -398 19 -162 41 -274 66 -332 4 -11 18 -45 30 -75
13 -30 33 -72 46 -92 13 -21 23 -40 23 -43 0 -13 111 -155 161 -207 94 -96
256 -201 374 -243 28 -9 59 -21 70 -25 106 -44 332 -74 508 -67 232 9 425 56
602 144 240 120 447 366 520 618 9 33 21 70 26 83 33 86 35 403 3 545 -57 258
-185 467 -374 612 -250 192 -576 275 -970 246z m259 -142 c173 -30 317 -149
399 -329 27 -62 67 -190 86 -280 18 -84 38 -367 30 -420 -2 -19 -9 -84 -14
-145 -21 -245 -82 -425 -196 -580 -109 -147 -249 -215 -440 -215 -188 0 -321
73 -433 238 -95 139 -141 302 -162 578 -20 259 18 611 80 749 5 11 17 40 27
65 10 25 35 68 54 95 20 28 41 57 46 66 18 32 119 112 174 137 104 49 222 62
349 41z"/>
<path d="M15275 2270 c-220 -14 -439 -92 -610 -216 -60 -43 -171 -146 -210
-194 -73 -90 -105 -141 -151 -240 -83 -181 -107 -288 -107 -480 0 -104 5 -166
17 -220 55 -232 143 -396 296 -550 188 -189 359 -275 665 -332 93 -17 387 -17
490 1 231 39 439 124 574 236 175 144 295 327 364 550 57 188 57 430 0 650
-119 459 -509 756 -1045 795 -133 10 -134 10 -283 0z m264 -141 c97 -17 184
-63 262 -140 72 -71 79 -81 149 -234 30 -65 61 -180 81 -305 18 -109 18 -446
1 -560 -53 -347 -191 -586 -392 -682 -144 -68 -350 -65 -489 7 -50 25 -145
121 -194 194 -26 38 -47 73 -47 77 0 4 -13 42 -29 83 -56 146 -71 243 -78 526
-6 231 1 309 47 525 11 51 22 80 61 168 121 268 345 389 628 341z"/>
<path d="M13145 2214 c-101 -6 -295 -34 -405 -60 -100 -24 -258 -75 -290 -94
-8 -5 -46 -25 -85 -45 -141 -74 -277 -195 -365 -325 -48 -71 -123 -234 -134
-290 -4 -19 -14 -64 -21 -100 -29 -131 -38 -281 -25 -392 11 -94 41 -227 60
-267 4 -9 15 -34 26 -56 56 -121 225 -312 320 -360 21 -11 60 -32 87 -48 94
-57 287 -119 452 -147 116 -19 159 -21 385 -18 251 4 342 15 402 48 10 6 22
10 28 10 19 0 145 64 191 97 65 46 82 76 96 168 15 99 16 125 3 125 -5 0 -10
-4 -10 -10 0 -5 -10 -20 -22 -33 -13 -12 -37 -38 -54 -57 -97 -109 -246 -176
-429 -195 -69 -6 -249 16 -328 41 -257 81 -473 302 -552 566 -9 29 -22 71 -28
93 -16 54 -16 396 0 450 6 22 19 65 28 95 50 172 153 350 264 460 23 23 139
110 145 110 3 0 30 11 59 25 28 14 80 32 115 40 69 16 228 20 264 6 13 -4 50
-17 83 -27 102 -30 230 -109 302 -185 17 -19 51 -63 75 -99 34 -49 51 -66 71
-68 38 -5 44 19 24 97 -21 82 -22 269 -2 361 8 40 10 69 5 74 -9 9 -608 17
-735 10z"/>
<path d="M16934 2196 c-3 -8 -4 -25 -2 -37 3 -20 12 -24 68 -34 78 -13 144
-48 170 -91 19 -30 20 -56 20 -892 l0 -860 -32 -43 c-37 -47 -100 -78 -164
-78 -47 -1 -67 -18 -62 -53 l3 -23 550 0 550 0 0 35 0 35 -55 6 c-106 11 -179
64 -199 143 -15 60 -15 502 0 512 6 3 60 -42 122 -104 62 -60 137 -131 167
-157 30 -26 69 -60 86 -75 170 -151 439 -315 615 -375 l76 -25 404 2 404 3 0
35 c0 32 -3 35 -30 38 -81 7 -176 71 -193 130 -15 50 -17 1659 -2 1711 19 69
84 114 181 127 l50 7 -3 36 -3 36 -535 0 -535 0 0 -34 0 -35 65 -11 c81 -14
121 -35 157 -82 l28 -36 3 -846 c1 -476 -1 -848 -6 -853 -12 -12 -168 83 -291
176 -93 71 -254 223 -357 336 -123 136 -288 380 -377 559 l-37 74 0 251 c0
138 4 268 9 289 17 73 86 121 192 134 l64 8 0 35 0 35 -548 3 c-468 2 -548 0
-553 -12z"/>
</g>
</svg>
