<svg xmlns="http://www.w3.org/2000/svg" viewBox="0 0 527 1059">
<g transform="translate(0.000000,1059.000000) scale(0.100000,-0.100000)"
fill="#000000" stroke="none">
<path d="M60 9610 l0 -980 1890 0 1890 0 0 980 c0 539 -3 980 -6 980 -7 0 -5
3 -246 -297 -112 -139 -205 -252 -208 -252 -3 0 -97 111 -210 246 -223 267
-228 273 -238 273 -4 0 -113 -124 -242 -274 -129 -150 -238 -272 -242 -269 -4
2 -105 115 -225 251 -211 241 -259 292 -273 292 -12 0 -83 -76 -291 -314 -112
-129 -206 -235 -209 -235 -3 0 -111 124 -240 274 -129 151 -238 275 -242 275
-4 0 -105 -117 -225 -259 -120 -143 -220 -260 -223 -260 -3 0 -104 124 -225
275 -121 151 -223 274 -227 274 -5 0 -8 -441 -8 -980z m2293 161 l149 -6 -401
-362 -400 -363 -48 0 c-26 0 -98 3 -159 6 l-111 7 145 211 c80 116 192 280
250 364 l105 152 161 -1 c89 -1 228 -4 309 -8z"/>
<path d="M52 8113 c-4 -10 -7 -54 -7 -97 l0 -80 120 -18 c66 -9 165 -22 220
-27 149 -15 242 -54 391 -166 66 -49 161 -160 175 -204 6 -20 21 -56 33 -81
l21 -45 3 -3259 c3 -3558 6 -3364 -53 -3488 -33 -69 -62 -107 -129 -171 -86
-81 -118 -104 -177 -127 -30 -12 -68 -30 -86 -41 -31 -20 -157 -38 -373 -54
-132 -10 -136 -11 -154 -56 -9 -23 -16 -69 -16 -109 l0 -70 43 -1 c52 -1 3708
-1 3760 0 l37 1 0 70 c0 40 -7 86 -16 109 -18 45 -22 46 -154 56 -216 16 -342
34 -373 54 -18 11 -56 29 -85 40 -58 23 -104 56 -186 136 -64 62 -89 96 -121
163 -59 124 -56 -71 -53 3488 l3 3259 21 40 c11 22 26 59 34 82 34 108 250
290 410 345 30 10 100 23 155 29 55 5 154 18 220 27 l120 18 3 70 c2 39 -2 83
-7 97 l-11 27 -1880 0 c-1782 0 -1881 -1 -1888 -17z"/>
</g>
</svg>
