<svg xmlns="http://www.w3.org/2000/svg" viewBox="0 0 527 1059">
<g transform="translate(0.000000,1059.000000) scale(0.100000,-0.100000)"
fill="#ffb101" stroke="none">
<path d="M3803 10558 c-17 -18 -117 -141 -223 -273 -106 -132 -195 -241 -199
-242 -3 -1 -104 115 -224 257 -130 155 -222 257 -230 254 -6 -3 -115 -127
-242 -274 -126 -148 -232 -269 -235 -269 -3 0 -106 116 -230 258 -124 141
-235 265 -248 275 -23 18 -24 17 -49 -5 -14 -13 -125 -136 -246 -274 -122
-137 -224 -250 -227 -250 -4 0 -111 122 -240 270 -128 149 -236 271 -240 273
-5 2 -106 -113 -226 -255 -119 -142 -220 -258 -224 -258 -4 0 -94 108 -200
240 -201 251 -238 295 -252 295 -4 0 -8 -439 -8 -975 l0 -975 1890 0 1890 0 0
980 c0 539 -1 980 -3 980 -2 0 -17 -15 -34 -32z m-1303 -790 c0 -4 -178 -168
-396 -365 -316 -285 -403 -359 -428 -361 -17 -2 -90 -1 -163 3 l-132 7 43 61
c197 286 438 640 443 653 6 15 36 16 320 13 172 -2 313 -7 313 -11z"/>
</g>
<g transform="translate(0.000000,1059.000000) scale(0.100000,-0.100000)"
fill="#acab00" stroke="none">
<path d="M55 8113 c-4 -10 -9 -53 -12 -95 -7 -91 -33 -77 212 -108 247 -31
298 -44 390 -96 149 -85 257 -184 296 -271 12 -26 31 -68 43 -93 l21 -45 5
-1670 c3 -918 5 -2397 5 -3285 -1 -1477 -3 -1621 -18 -1685 -9 -38 -24 -87
-32 -108 -41 -103 -216 -279 -304 -307 -25 -8 -59 -24 -77 -36 -41 -28 -52
-30 -279 -53 -224 -23 -260 -35 -274 -88 -17 -60 -14 -140 5 -147 20 -8 3788
-8 3808 0 19 7 22 87 5 147 -14 53 -50 65 -274 88 -224 23 -241 26 -275 50
-14 10 -48 27 -77 37 -54 19 -102 55 -183 138 -127 129 -154 198 -171 439 -11
152 -5 6233 7 6395 7 108 62 245 125 314 102 111 269 216 384 240 38 8 149 25
245 36 96 12 183 24 193 27 14 3 17 15 17 61 0 31 -5 74 -11 95 l-10 37 -1878
0 c-1780 0 -1879 -1 -1886 -17z"/>
</g>
</svg>
