<svg xmlns="http://www.w3.org/2000/svg" viewBox="0 0 1528 469">
<g transform="translate(0.000000,469.000000) scale(0.100000,-0.100000)"
fill="#ffb101" stroke="none">
<path d="M30 4256 l0 -426 835 0 835 0 0 425 c0 245 -4 425 -9 425 -5 0 -51
-52 -101 -115 -50 -63 -95 -115 -99 -115 -4 0 -47 49 -96 109 -50 60 -94 110
-98 110 -5 1 -20 -14 -35 -31 -68 -82 -174 -198 -181 -198 -4 0 -54 52 -110
115 -56 63 -105 115 -110 115 -4 0 -54 -52 -110 -115 -56 -63 -106 -115 -111
-115 -4 0 -52 52 -106 115 -53 63 -100 115 -104 115 -4 0 -48 -50 -99 -110
-52 -61 -97 -110 -101 -108 -4 2 -44 48 -88 103 -44 56 -87 107 -96 114 -15
12 -16 -23 -16 -413z m1064 62 c-6 -12 -262 -247 -322 -295 -25 -20 -36 -22
-94 -16 l-65 6 73 106 c40 58 89 130 109 159 l36 52 134 0 c104 0 133 -3 129
-12z"/>
<path d="M10398 3693 c-9 -10 -40 -54 -70 -98 -30 -44 -72 -105 -93 -135 -56
-80 -257 -375 -278 -410 -10 -16 -16 -34 -12 -40 4 -6 54 -10 124 -10 l117 0
95 87 c52 47 154 143 228 212 73 69 144 135 156 146 118 104 265 241 265 246
0 15 -57 19 -281 19 -212 0 -237 -2 -251 -17z"/>
</g>
<g transform="translate(0.000000,469.000000) scale(0.100000,-0.100000)"
fill="#acab00" stroke="none">
<path d="M25 3569 c-4 -17 -3 -35 2 -40 4 -4 55 -15 111 -24 57 -8 121 -24
144 -36 61 -31 123 -94 147 -149 l21 -49 -2 -1463 -3 -1463 -28 -47 c-29 -49
-88 -102 -147 -130 -19 -9 -80 -22 -135 -28 -55 -6 -103 -14 -107 -18 -3 -4
-9 -23 -13 -43 -6 -34 -5 -36 22 -41 23 -4 1586 -3 1646 1 21 1 24 63 4 79 -7
6 -58 17 -113 23 -150 18 -239 73 -287 177 l-22 47 2 1461 1 1461 26 51 c46
91 138 146 281 167 54 8 102 15 107 15 4 0 8 18 8 40 l0 40 -829 0 -829 0 -7
-31z"/>
<path d="M3444 2840 c-66 -3 -125 -10 -132 -14 -6 -4 -44 -13 -84 -20 -40 -8
-89 -20 -108 -27 -19 -7 -60 -21 -90 -32 -220 -78 -435 -231 -591 -422 -56
-68 -179 -261 -179 -280 0 -3 -8 -25 -18 -48 -143 -328 -156 -663 -39 -1002
11 -33 26 -71 32 -85 84 -172 95 -189 174 -295 95 -126 206 -226 361 -326 65
-42 224 -119 246 -119 9 0 25 -5 37 -11 58 -31 288 -76 462 -89 241 -18 585
30 780 110 306 125 508 296 673 571 29 48 52 91 52 96 0 4 8 24 19 43 19 36
47 121 75 225 37 142 46 375 21 560 -19 143 -37 208 -97 365 -14 38 -116 222
-128 230 -3 3 -26 32 -50 65 -40 56 -187 205 -202 205 -3 0 -28 17 -55 38 -65
49 -75 55 -168 101 -116 57 -175 81 -197 81 -10 0 -35 7 -55 15 -61 26 -231
56 -368 65 -142 10 -190 10 -371 0z m344 -175 c153 -26 288 -108 382 -230 87
-112 175 -322 199 -473 5 -34 12 -66 15 -71 9 -14 37 -358 36 -446 0 -57 -33
-354 -45 -401 -8 -33 -15 -67 -15 -75 0 -45 -97 -302 -139 -369 -44 -70 -135
-182 -178 -217 -26 -22 -79 -56 -118 -76 -110 -55 -170 -69 -309 -69 -137 0
-230 22 -321 75 -109 63 -244 224 -295 353 -13 32 -27 64 -32 69 -6 10 -13 33
-36 130 -52 215 -72 497 -53 768 30 434 137 722 328 884 63 53 155 113 173
113 9 0 21 5 27 11 33 33 251 47 381 24z"/>
<path d="M9850 2809 c-63 -5 -143 -15 -177 -24 -34 -8 -71 -15 -81 -15 -19 0
-121 -32 -217 -68 -74 -28 -220 -107 -295 -160 -153 -109 -329 -305 -397 -442
-7 -14 -17 -32 -22 -40 -40 -60 -102 -233 -135 -375 -23 -95 -32 -380 -16
-460 6 -33 16 -82 21 -110 28 -147 102 -316 207 -475 56 -85 239 -280 297
-315 17 -11 46 -31 66 -46 105 -81 399 -196 562 -219 34 -5 98 -14 142 -20 94
-14 384 -8 495 10 342 55 608 177 810 373 78 75 164 176 190 224 9 16 27 46
41 68 24 38 47 84 87 178 22 50 55 161 71 237 19 93 31 344 21 433 -14 120
-36 242 -49 265 -6 11 -11 30 -11 41 0 11 -9 40 -19 63 -10 24 -29 68 -42 98
-13 30 -35 73 -48 95 -14 22 -32 51 -39 65 -29 55 -128 173 -200 241 -240 222
-524 339 -912 374 -170 16 -183 16 -350 4z m319 -180 c134 -22 287 -119 380
-239 94 -120 186 -367 211 -560 28 -215 32 -269 28 -440 -14 -558 -192 -967
-486 -1118 -46 -23 -92 -42 -102 -42 -9 0 -35 -7 -56 -16 -31 -13 -64 -15
-174 -11 -145 5 -215 23 -313 80 -84 50 -198 175 -254 282 -39 72 -80 176 -89
225 -3 14 -14 63 -24 110 -61 277 -59 811 5 1030 8 25 16 63 20 85 12 70 85
237 141 322 63 93 170 197 241 231 97 48 109 52 163 61 80 13 233 13 309 0z"/>
<path d="M7155 2744 c-185 -18 -367 -49 -510 -86 -85 -22 -270 -84 -295 -98
-8 -5 -53 -28 -100 -52 -217 -110 -441 -336 -529 -533 -13 -27 -31 -68 -41
-90 -25 -56 -46 -121 -58 -180 -6 -27 -15 -70 -21 -95 -20 -86 -42 -320 -36
-383 27 -286 74 -436 192 -614 53 -81 225 -256 281 -287 15 -9 41 -22 57 -31
17 -9 44 -24 60 -35 95 -61 360 -159 487 -180 35 -6 99 -17 143 -25 58 -10
162 -14 380 -15 284 0 306 1 405 24 184 43 280 82 392 159 80 55 118 108 118
166 1 26 4 64 9 86 16 83 -10 87 -68 10 -41 -54 -153 -144 -221 -177 -48 -23
-126 -53 -180 -68 -64 -18 -310 -24 -395 -10 -298 50 -539 198 -698 426 -47
67 -93 155 -147 279 -10 22 -38 127 -50 190 -26 128 -19 443 11 523 6 15 15
50 20 77 9 50 24 93 60 171 10 23 19 46 19 52 0 19 112 206 160 267 183 232
422 355 686 355 194 0 418 -94 581 -244 59 -54 153 -171 153 -191 0 -21 47
-57 72 -53 30 4 35 40 13 116 -23 79 -23 336 0 446 12 56 13 82 6 89 -11 11
-861 20 -956 11z"/>
<path d="M11892 2708 c-7 -7 -12 -21 -12 -33 0 -37 22 -52 86 -58 99 -10 170
-50 213 -121 l24 -39 -6 -1051 c-3 -642 -10 -1062 -16 -1077 -26 -69 -123
-127 -226 -136 -33 -3 -66 -10 -72 -16 -14 -10 -17 -55 -5 -74 5 -8 182 -12
676 -14 l669 -3 10 21 c5 12 7 33 3 47 -6 23 -12 26 -46 26 -50 0 -141 31
-190 65 -20 14 -47 44 -61 68 -24 42 -24 44 -27 359 -3 317 -3 318 18 318 13
0 68 -48 158 -139 162 -164 318 -299 497 -430 72 -53 140 -101 150 -108 73
-45 182 -105 250 -137 203 -97 168 -93 736 -100 548 -8 524 -10 517 56 -3 31
-5 33 -53 40 -109 16 -215 92 -231 167 -4 20 -6 490 -5 1044 3 1078 3 1081 53
1134 36 39 114 74 182 81 l61 7 3 46 3 46 -657 7 c-730 8 -697 10 -678 -56 9
-31 12 -33 84 -43 107 -15 168 -50 210 -120 l25 -40 -3 -1035 c-3 -769 -7
-1038 -15 -1047 -9 -9 -31 0 -92 37 -44 27 -87 53 -95 57 -39 18 -233 167
-310 237 -322 294 -590 646 -773 1016 l-32 65 3 310 c2 171 7 333 13 361 17
89 101 151 214 160 106 9 107 9 103 57 l-3 42 -340 6 c-626 11 -1000 10 -1013
-3z"/>
</g>
</svg>
