<svg xmlns="http://www.w3.org/2000/svg" viewBox="0 0 1528 469">
<g transform="translate(0.000000,469.000000) scale(0.100000,-0.100000)"
fill="#000000" stroke="none">
<path d="M32 4253 l3 -428 830 0 830 0 3 428 c2 341 0 428 -10 425 -7 -3 -52
-54 -101 -114 -48 -60 -91 -110 -95 -111 -4 -1 -47 47 -97 107 -49 61 -95 109
-101 107 -6 -1 -55 -53 -109 -114 -53 -62 -100 -113 -104 -113 -4 0 -52 52
-106 115 -54 63 -104 115 -111 115 -6 0 -58 -52 -114 -115 -56 -63 -105 -115
-109 -115 -4 0 -52 52 -105 115 -54 63 -102 115 -106 115 -5 0 -50 -49 -101
-110 -62 -74 -96 -107 -103 -101 -6 6 -49 57 -96 115 -47 58 -88 105 -93 106
-4 0 -6 -192 -5 -427z m1053 66 c3 -4 -70 -76 -162 -158 l-167 -151 -68 0
c-37 0 -68 2 -68 5 0 3 15 27 33 53 18 26 66 96 107 155 l74 108 123 -2 c68
-1 126 -5 128 -10z"/>
<path d="M10388 3693 c-9 -10 -54 -74 -100 -143 -46 -69 -111 -163 -143 -210
-172 -249 -215 -316 -215 -332 0 -16 12 -18 123 -18 139 0 135 -2 232 91 33
31 72 67 86 80 15 13 82 76 150 140 68 65 144 134 169 155 25 22 81 73 125
114 44 42 91 85 104 97 13 12 20 26 16 32 -4 7 -92 11 -269 11 -238 0 -264 -2
-278 -17z"/>
<path d="M31 3597 c-12 -12 -15 -77 -3 -77 4 0 51 -7 106 -15 117 -16 189 -49
246 -111 75 -82 71 22 68 -1595 l-3 -1444 -23 -48 c-48 -96 -147 -152 -290
-163 -78 -6 -95 -10 -107 -28 -23 -32 -19 -75 8 -81 12 -3 391 -4 842 -3 l820
3 3 42 c4 53 -6 58 -120 67 -115 9 -180 38 -241 106 -26 28 -51 68 -57 88 -6
24 -10 534 -10 1489 0 1405 1 1453 19 1496 43 100 139 160 290 181 55 8 104
17 111 21 13 8 4 66 -12 76 -18 12 -1636 7 -1647 -4z"/>
<path d="M3465 2849 c-60 -5 -137 -15 -170 -23 -33 -8 -80 -17 -105 -21 -24
-3 -49 -9 -55 -14 -5 -4 -48 -20 -95 -36 -373 -123 -715 -469 -842 -855 -9
-25 -21 -61 -28 -80 -12 -34 -18 -69 -39 -215 -13 -91 -13 -268 0 -325 6 -25
14 -72 19 -105 20 -140 96 -326 195 -480 72 -112 222 -273 307 -331 24 -15 59
-41 79 -56 85 -64 278 -148 444 -191 324 -85 737 -72 1040 32 17 5 59 20 95
32 36 12 72 28 81 36 8 7 21 13 27 13 12 0 71 34 165 94 80 51 205 168 275
257 199 252 296 535 297 864 0 131 -16 305 -34 360 -6 17 -19 62 -31 100 -26
86 -58 167 -87 220 -12 22 -30 54 -39 70 -38 68 -138 196 -201 257 -195 187
-403 294 -708 362 -155 35 -408 50 -590 35z m407 -207 c230 -81 362 -246 472
-587 9 -27 16 -59 16 -70 0 -12 7 -46 14 -76 19 -71 36 -270 38 -425 2 -280
-55 -588 -143 -769 -10 -22 -19 -45 -19 -51 0 -28 -126 -198 -190 -256 -63
-58 -196 -138 -229 -138 -7 0 -35 -7 -62 -16 -39 -13 -76 -15 -177 -11 -190 7
-293 50 -415 172 -119 119 -202 275 -241 455 -9 41 -21 95 -27 120 -28 128
-37 446 -19 705 8 131 27 238 64 380 28 108 93 247 146 314 20 25 41 53 46 62
17 30 149 134 199 157 28 13 59 28 70 34 35 19 118 27 260 23 109 -2 153 -7
197 -23z"/>
<path d="M9817 2809 c-65 -4 -142 -15 -171 -23 -30 -9 -66 -16 -80 -16 -14 0
-40 -6 -58 -14 -18 -7 -60 -23 -93 -35 -165 -60 -344 -166 -452 -270 -29 -27
-61 -55 -71 -63 -26 -18 -130 -150 -173 -219 -19 -30 -40 -64 -47 -75 -6 -10
-17 -30 -22 -44 -6 -14 -24 -52 -39 -85 -36 -75 -64 -163 -92 -285 -29 -127
-31 -394 -4 -515 47 -216 108 -362 219 -528 201 -302 557 -525 916 -577 36 -5
72 -11 80 -14 34 -13 275 -23 391 -16 213 13 316 33 509 98 231 78 449 225
578 391 24 31 47 58 51 61 24 17 135 215 176 315 21 49 46 134 67 225 24 110
35 386 19 485 -26 157 -59 295 -80 340 -6 11 -20 45 -33 75 -12 30 -33 73 -46
95 -13 22 -33 58 -46 79 -66 112 -216 269 -345 360 -74 52 -225 129 -308 156
-37 13 -83 29 -101 36 -18 8 -51 16 -75 19 -23 4 -64 13 -92 20 -51 15 -315
36 -408 34 -29 -1 -105 -5 -170 -10z m273 -179 c112 -10 216 -37 251 -67 8 -7
20 -13 25 -13 19 0 117 -88 178 -159 89 -104 192 -386 216 -590 6 -52 13 -98
16 -102 2 -4 5 -106 5 -226 2 -395 -60 -675 -205 -930 -31 -54 -125 -164 -173
-200 -61 -47 -154 -94 -236 -119 -88 -27 -279 -24 -374 5 -163 51 -301 175
-396 356 -29 55 -87 215 -87 239 0 14 -5 37 -11 53 -40 106 -59 621 -31 853
12 100 17 129 43 253 14 66 48 166 66 192 7 11 13 27 13 35 0 26 119 199 174
251 100 97 182 140 311 164 92 17 83 16 215 5z"/>
<path d="M7175 2750 c-71 -4 -148 -12 -170 -18 -22 -5 -69 -13 -105 -17 -122
-12 -294 -57 -500 -131 -67 -24 -235 -116 -315 -172 -146 -104 -300 -286 -369
-437 -70 -154 -83 -188 -92 -245 -3 -25 -10 -53 -15 -62 -19 -36 -51 -341 -46
-443 16 -340 135 -607 360 -809 67 -60 158 -126 174 -126 4 0 14 -6 22 -14 26
-21 143 -83 181 -94 19 -6 60 -20 90 -32 83 -33 142 -50 290 -81 133 -28 141
-28 478 -29 363 0 374 1 542 52 71 22 197 79 245 112 17 11 53 44 81 73 56 57
52 43 71 243 l6 64 -44 -49 c-138 -154 -212 -210 -339 -257 -144 -53 -311 -68
-479 -44 -63 10 -132 24 -155 32 -23 8 -61 21 -86 27 -39 11 -108 46 -195 100
-142 87 -288 255 -363 418 -58 125 -63 138 -84 214 -45 165 -49 506 -8 635 11
34 20 71 20 80 0 22 39 128 57 155 7 11 13 27 13 35 0 9 29 67 64 129 119 208
263 348 448 435 120 57 317 89 418 68 173 -37 260 -71 385 -153 74 -49 191
-165 239 -239 47 -71 67 -90 97 -90 38 0 42 29 19 125 -22 88 -26 284 -9 385
5 30 12 76 15 101 l6 47 -123 6 c-221 10 -691 14 -824 6z"/>
<path d="M11887 2713 c-4 -3 -7 -24 -7 -45 0 -32 4 -40 26 -48 14 -6 44 -10
67 -10 23 -1 60 -9 82 -20 22 -11 44 -19 48 -20 15 0 69 -63 83 -96 12 -28 13
-197 8 -1061 -3 -566 -10 -1044 -15 -1064 -12 -46 -62 -102 -114 -125 -22 -9
-74 -22 -115 -28 l-75 -12 0 -44 0 -45 245 -7 c135 -4 441 -7 680 -5 l435 2 3
40 c4 49 -15 65 -75 65 -63 0 -167 52 -203 102 -46 64 -52 113 -44 416 4 150
11 275 16 278 5 4 87 -70 181 -164 180 -178 234 -226 401 -355 97 -76 258
-186 321 -221 17 -9 37 -21 45 -26 26 -17 230 -110 240 -110 5 0 36 -9 68 -20
56 -19 80 -20 553 -18 l494 3 3 47 3 47 -38 6 c-134 22 -222 80 -243 162 -9
37 -10 275 -6 1038 4 545 9 1014 12 1043 10 93 96 162 221 177 61 7 63 8 69
41 3 19 4 40 1 48 -9 22 -191 27 -797 24 l-545 -3 -3 -40 c-4 -50 15 -65 82
-65 33 0 68 -9 101 -24 62 -31 86 -51 114 -98 l22 -37 0 -888 c-1 -906 -7
-1193 -24 -1193 -5 0 -48 23 -96 52 -357 215 -689 542 -946 933 -39 61 -80
124 -89 140 -9 17 -32 57 -52 90 -19 33 -50 93 -70 133 l-36 73 5 327 c3 180
8 339 12 354 10 39 67 94 123 118 26 12 78 24 115 27 61 5 70 9 78 30 13 34
11 49 -7 67 -14 14 -89 16 -683 16 -367 0 -671 -3 -674 -7z"/>
</g>
</svg>
